{
  "accessors": [
    {
      "bufferView": 2,
      "componentType": 5126,
      "count": 1371,
      "max": [
        7.4752731323242188,
        10.311172485351562,
        0.29046249389648438
      ],
      "min": [
        -7.4752731323242188,
        -8.3716659545898438,
        -10.078857421875
      ],
      "type": "VEC3"
    },
    {
      "bufferView": 2,
      "byteOffset": 16452,
      "componentType": 5126,
      "count": 1371,
      "max": [
        0.99062436819076538,
        0.99903702735900879,
        0.99917006492614746
      ],
      "min": [
        -0.99062436819076538,
        -0.99317991733551025,
        -0.21483868360519409
      ],
      "type": "VEC3"
    },
    {
      "bufferView": 1,
      "componentType": 5126,
      "count": 1371,
      "max": [
        0.93692630529403687,
        0.90890961885452271
      ],
      "min": [
        0.063073687255382538,
        0.093656055629253387
      ],
      "type": "VEC2"
    },
    {
      "bufferView": 0,
      "componentType": 5125,
      "count": 7554,
      "max": [
        1370
      ],
      "min": [
        0
      ],
      "type": "SCALAR"
    }
  ],
  "asset": {
    "extras": {
      "author": "ilyha2512 (https://sketchfab.com/ilyha2512)",
      "license": "CC-BY-4.0 (http://creativecommons.org/licenses/by/4.0/)",
      "source": "https://sketchfab.com/3d-models/face-reference-assets-classic-7fdd3208de5049a09b7789e0cea3e45f",
      "title": "Face-reference-assets-classic"
    },
    "generator": "Sketchfab-8.79.0",
    "version": "2.0"
  },
  "bufferViews": [
    {
      "buffer": 0,
      "byteLength": 30216,
      "byteOffset": 0,
      "name": "floatBufferViews",
      "target": 34963
    },
    {
      "buffer": 0,
      "byteLength": 10968,
      "byteOffset": 30216,
      "byteStride": 8,
      "name": "floatBufferViews",
      "target": 34962
    },
    {
      "buffer": 0,
      "byteLength": 32904,
      "byteOffset": 41184,
      "byteStride": 12,
      "name": "floatBufferViews",
      "target": 34962
    }
  ],
  "buffers": [
    {
      "byteLength": 74088,
      "uri": "scene.bin"
    }
  ],
  "materials": [
    {
      "doubleSided": true,
      "emissiveFactor": [
        0,
        0,
        0
      ],
      "name": "defaultMaterial",
      "pbrMetallicRoughness": {
        "baseColorFactor": [
          1,
          1,
          1,
          1
        ],
        "metallicFactor": 0,
        "roughnessFactor": 0.59999999999999998
      }
    }
  ],
  "meshes": [
    {
      "name": "faceMesh_defaultMaterial_0",
      "primitives": [
        {
          "attributes": {
            "NORMAL": 1,
            "POSITION": 0,
            "TEXCOORD_0": 2
          },
          "indices": 3,
          "material": 0,
          "mode": 4
        }
      ]
    }
  ],
  "nodes": [
    {
      "children": [
        1
      ],
      "name": "RootNode (gltf orientation matrix)",
      "rotation": [
        -0.70710678118654746,
        -0,
        -0,
        0.70710678118654757
      ]
    },
    {
      "children": [
        2
      ],
      "name": "RootNode (model correction matrix)"
    },
    {
      "children": [
        3
      ],
      "matrix": [
        1,
        0,
        0,
        0,
        0,
        0,
        1,
        0,
        0,
        -1,
        0,
        0,
        0,
        0,
        0,
        1
      ],
      "name": "faceMesh.fbx"
    },
    {
      "children": [
        4
      ],
      "name": "RootNode"
    },
    {
      "children": [
        5
      ],
      "matrix": [
        1,
        0,
        0,
        0,
        0,
        1,
        0,
        0,
        0,
        0,
        1,
        0,
        0,
        -2.5243548967072378e-26,
        2.8272774843121063e-25,
        1
      ],
      "name": "faceMesh"
    },
    {
      "mesh": 0,
      "name": "faceMesh_defaultMaterial_0"
    }
  ],
  "scene": 0,
  "scenes": [
    {
      "name": "OSG_Scene",
      "nodes": [
        0
      ]
    }
  ]
}

